<?xml version="1.0" encoding="iso-8859-1"?>
<!-- Generator: Adobe Illustrator 19.0.0, SVG Export Plug-In . SVG Version: 6.00 Build 0)  -->
<svg xmlns="http://www.w3.org/2000/svg" xmlns:xlink="http://www.w3.org/1999/xlink" version="1.1" id="Capa_1" x="0px" y="0px" viewBox="0 0 512 512" style="enable-background:new 0 0 512 512;" xml:space="preserve" width="512px" height="512px">
<g>
	<g>
		<path d="M286,121h-90c-8.284,0-15,6.716-15,15s6.716,15,15,15h90c8.284,0,15-6.716,15-15S294.284,121,286,121z" fill="#000000"/>
	</g>
</g>
<g>
	<g>
		<path d="M286,181h-90c-8.284,0-15,6.716-15,15s6.716,15,15,15h90c8.284,0,15-6.716,15-15S294.284,181,286,181z" fill="#000000"/>
	</g>
</g>
<g>
	<g>
		<path d="M346,242H196c-8.284,0-15,6.716-15,15s6.716,15,15,15h150c8.284,0,15-6.716,15-15S354.284,242,346,242z" fill="#000000"/>
	</g>
</g>
<g>
	<g>
		<path d="M316,362H196c-24.813,0-45,20.187-45,45s20.187,45,45,45h120c24.813,0,45-20.187,45-45S340.813,362,316,362z M316,422H196    c-8.271,0-15-6.729-15-15s6.729-15,15-15h120c8.271,0,15,6.729,15,15S324.271,422,316,422z" fill="#000000"/>
	</g>
</g>
<g>
	<g>
		<path d="M497,242h-45v-92.701c0.048-11.491-4.91-23.109-13.604-31.875l-42.25-42.602c-1.316-1.327-2.706-2.558-4.146-3.709V15    c0-8.284-6.716-15-15-15H76c-8.284,0-15,6.716-15,15v227H15c-8.284,0-15,6.716-15,15v210c0,24.813,20.187,45,45,45h422    c24.813,0,45-20.187,45-45V257C512,248.716,505.284,242,497,242z M374.846,95.947l42.25,42.602    c3.086,3.112,4.919,7.083,4.904,10.687V151h-60V91h2.257C368.108,91.016,372.129,93.208,374.846,95.947z M347,181h75v61h-16    c-5.682,0-10.876,3.21-13.416,8.292L366.729,302H151V91h181v75C332,174.284,338.716,181,347,181z M91,30h271v31H136    c-8.284,0-15,6.716-15,15v177.46c-1.334-2.668-4.68-11.46-15-11.46H91V30z M482,467c0,8.271-6.729,15-15,15H45    c-8.271,0-15-6.729-15-15V272h66.729l25.854,51.708C125.056,328.653,130.227,332,136,332h240c5.682,0,10.876-3.21,13.416-8.292    L415.271,272H482V467z" fill="#000000"/>
	</g>
</g>
<g>
</g>
<g>
</g>
<g>
</g>
<g>
</g>
<g>
</g>
<g>
</g>
<g>
</g>
<g>
</g>
<g>
</g>
<g>
</g>
<g>
</g>
<g>
</g>
<g>
</g>
<g>
</g>
<g>
</g>
</svg>
