<?xml version="1.0" encoding="iso-8859-1"?>
<!-- Generator: Adobe Illustrator 19.0.0, SVG Export Plug-In . SVG Version: 6.00 Build 0)  -->
<svg xmlns="http://www.w3.org/2000/svg" xmlns:xlink="http://www.w3.org/1999/xlink" version="1.1" id="Capa_1" x="0px" y="0px" viewBox="0 0 512 512" style="enable-background:new 0 0 512 512;" xml:space="preserve" width="512px" height="512px">
<g>
	<g>
		<path d="M476.561,242.032L456.2,85.193C470.893,77.778,481,62.552,481,45c0-24.813-20.187-45-45-45    c-19.555,0-36.228,12.542-42.42,30H148.42C142.228,12.542,125.555,0,106,0C81.187,0,61,20.187,61,45    c0,15.778,8.169,29.675,20.492,37.711L40.34,271.241C17.709,273.58,0,292.76,0,316c0,24.813,20.187,45,45,45    c9.699,0,18.684-3.095,26.04-8.335l171.616,102.269C241.585,458.777,241,462.82,241,467c0,24.813,20.187,45,45,45s45-20.187,45-45    c0-6.938-1.581-13.515-4.398-19.389L447.61,326.602C453.486,329.419,460.061,331,467,331c24.813,0,45-20.187,45-45    C512,264.468,496.795,246.429,476.561,242.032z M148.42,60h245.16c0.537,1.514,1.146,2.995,1.836,4.43L267.29,193.432    C255.439,185.585,241.247,181,226,181c-8.479,0-16.624,1.435-24.231,4.04L138.347,76.237C142.778,71.65,146.246,66.131,148.42,60z     M106,30c8.271,0,15,6.729,15,15s-6.729,15-15,15s-15-6.729-15-15S97.729,30,106,30z M45,331c-8.271,0-15-6.729-15-15    s6.729-15,15-15s15,6.729,15,15C60,324.191,53.308,331,45,331z M69.508,278.289l41.152-188.53c0.264-0.027,0.523-0.069,0.786-0.1    l64.459,110.582C160.628,213.98,151,233.884,151,256c0,4.734,0.461,9.359,1.304,13.852l-67.05,26.068    C81.657,288.738,76.197,282.65,69.508,278.289z M88.347,328.055c0.118-0.426,0.234-0.852,0.34-1.283l74.962-29.144    C177.117,317.734,200.036,331,226,331c1.572,0,3.128-0.064,4.675-0.161l26.199,97.644L88.347,328.055z M226,301    c-24.813,0-45-20.187-45-45s20.187-45,45-45s45,20.187,45,45S250.813,301,226,301z M286,482c-8.271,0-15-6.729-15-15    s6.729-15,15-15s15,6.729,15,15S294.271,482,286,482z M305.389,426.398c-5.819-2.79-12.326-4.363-19.192-4.393l-26.563-99    c17.027-8.582,30.36-23.45,36.912-41.55l127.469,17.872c0.649,2.09,1.449,4.115,2.383,6.063L305.389,426.398z M425.263,269.208    l-124.389-17.44c-0.765-13.672-5.21-26.373-12.356-37.136l128.135-129.01c3.085,1.475,6.365,2.603,9.787,3.347l20.361,156.84    C437.075,250.715,429.367,259.044,425.263,269.208z M436,60c-8.271,0-15-6.729-15-15s6.729-15,15-15s15,6.729,15,15    S444.271,60,436,60z M467,301c-8.271,0-15-6.729-15-15s6.729-15,15-15s15,6.729,15,15S475.271,301,467,301z" fill="#000000"/>
	</g>
</g>
<g>
</g>
<g>
</g>
<g>
</g>
<g>
</g>
<g>
</g>
<g>
</g>
<g>
</g>
<g>
</g>
<g>
</g>
<g>
</g>
<g>
</g>
<g>
</g>
<g>
</g>
<g>
</g>
<g>
</g>
</svg>
